<?xml version="1.0" encoding="UTF-8" standalone="no"?>
<svg
   xmlns:dc="http://purl.org/dc/elements/1.1/"
   xmlns:cc="http://creativecommons.org/ns#"
   xmlns:rdf="http://www.w3.org/1999/02/22-rdf-syntax-ns#"
   xmlns:svg="http://www.w3.org/2000/svg"
   xmlns="http://www.w3.org/2000/svg"
   xmlns:xlink="http://www.w3.org/1999/xlink"
   xmlns:sodipodi="http://sodipodi.sourceforge.net/DTD/sodipodi-0.dtd"
   xmlns:inkscape="http://www.inkscape.org/namespaces/inkscape"
   id="Layer_1"
   data-name="Layer 1"
   viewBox="40 30 147.42952 184"
   version="1.1"
   sodipodi:docname="dask.svg"
   width="147.42952"
   height="184"
   inkscape:version="0.92.5 (2060ec1f9f, 2020-04-08)">
  <metadata
     id="metadata36">
    <rdf:RDF>
      <cc:Work
         rdf:about="">
        <dc:format>image/svg+xml</dc:format>
        <dc:type
           rdf:resource="http://purl.org/dc/dcmitype/StillImage" />
        <dc:title>Dask</dc:title>
      </cc:Work>
    </rdf:RDF>
  </metadata>
  <sodipodi:namedview
     pagecolor="#ffffff"
     bordercolor="#666666"
     borderopacity="1"
     objecttolerance="10"
     gridtolerance="10"
     guidetolerance="10"
     inkscape:pageopacity="0"
     inkscape:pageshadow="2"
     inkscape:window-width="1920"
     inkscape:window-height="1061"
     id="namedview34"
     showgrid="false"
     fit-margin-top="0"
     fit-margin-left="0"
     fit-margin-right="0"
     fit-margin-bottom="0"
     inkscape:zoom="0.72765957"
     inkscape:cx="-52.932281"
     inkscape:cy="91"
     inkscape:window-x="0"
     inkscape:window-y="0"
     inkscape:window-maximized="0"
     inkscape:current-layer="Layer_1" />
  <defs
     id="defs15">
    <linearGradient
       id="linear-gradient"
       x1="195.28999"
       y1="168.44"
       x2="283.10001"
       y2="168.44"
       gradientTransform="rotate(7.91,516.5921,-567.33469)"
       gradientUnits="userSpaceOnUse">
      <stop
         offset="0.01"
         stop-color="#c7422f"
         id="stop2" />
      <stop
         offset="0.37"
         stop-color="#d46e43"
         id="stop4" />
      <stop
         offset="1"
         stop-color="#eeb575"
         id="stop6" />
    </linearGradient>
    <linearGradient
       id="linear-gradient-2"
       x1="222.57001"
       y1="166.19"
       x2="262.12"
       y2="166.19"
       gradientTransform="rotate(7.91,504.88819,-526.41431)"
       gradientUnits="userSpaceOnUse">
      <stop
         offset="0.21"
         stop-color="#cf603b"
         id="stop9" />
      <stop
         offset="1"
         stop-color="#eeb575"
         id="stop11" />
    </linearGradient>
    <linearGradient
       id="linear-gradient-3"
       x1="147.94"
       y1="170.64"
       x2="245.10001"
       y2="170.64"
       xlink:href="#linear-gradient-2"
       gradientTransform="translate(-5.52,-2)" />
    <linearGradient
       inkscape:collect="always"
       xlink:href="#linear-gradient-2"
       id="linearGradient4547"
       gradientUnits="userSpaceOnUse"
       gradientTransform="rotate(7.91,516.5921,-567.33469)"
       x1="222.57001"
       y1="166.19"
       x2="262.12"
       y2="166.19" />
  </defs>
  <title
     id="title17">Dask</title>
  <path
     d="m 186.89,108.26 q 0.17,-1.83 0.29,-3.66 A 119.55,119.55 0 0 0 174.94,43.68 L 168.12,30 164.96,45 a 109,109 0 0 1 -64.2,77.79 l -4.69,2 1.78,4.78 a 107.9,107.9 0 0 1 6.31,48.3 109.44,109.44 0 0 1 -5.68,25.88 l -3.64,10.25 10.28,-3.38 a 119.71,119.71 0 0 0 81.77,-102.36 z m -69.73,85.74 -5.48,2.79 1.2,-6 a 120.35,120.35 0 0 0 1.75,-12 118.87,118.87 0 0 0 -4.52,-45.89 l -0.73,-2.41 2.25,-1.12 a 120.24,120.24 0 0 0 56.25,-59.15 l 3.51,-8 2.09,8.48 a 107.63,107.63 0 0 1 2.69,36.54 108.48,108.48 0 0 1 -59.01,86.76 z"
     style="fill:url(#linear-gradient)"
     id="path27"
     inkscape:connector-curvature="0" />
  <path
     d="m 161.39,114.14 c 4.13,-9.12 8.42,-31.77 8.15,-33.46 a 126,126 0 0 1 -15.06,22.39 c -0.85,2.24 -1.74,4.47 -2.74,6.67 v 0 a 108.87,108.87 0 0 1 -31.62,40.47 q 0.85,6.14 1.07,12.36 a 119.4,119.4 0 0 0 40.2,-48.43 z"
     style="fill:url(#linearGradient4547)"
     id="path29"
     inkscape:connector-curvature="0" />
  <path
     d="m 98.56,163.48 a 109,109 0 0 1 -30.87,9.17 l -6.08,0.86 3.08,-5.31 a 120.74,120.74 0 0 0 5.54,-10.74 118.79,118.79 0 0 0 10.62,-44.87 l 0.09,-2.51 2.49,-0.33 a 120.18,120.18 0 0 0 54,-21.47 102.79,102.79 0 0 0 18.62,-33.38 109,109 0 0 1 -80.84,45 l -5.08,0.35 0.13,5.1 a 107.92,107.92 0 0 1 -9.72,47.73 109.43,109.43 0 0 1 -13.83,22.67 l -6.71,8.49 10.82,0.14 a 119.25,119.25 0 0 0 47.52,-9.26 104.21,104.21 0 0 0 0.22,-11.64 z"
     style="fill:url(#linear-gradient-3)"
     id="path31"
     inkscape:connector-curvature="0" />
</svg>
